<mxfile host="app.diagrams.net" modified="2023-07-07T09:26:56.071Z" agent="Mozilla/5.0 (Windows NT 10.0; Win64; x64) AppleWebKit/537.36 (KHTML, like Gecko) Chrome/114.0.0.0 Safari/537.36" etag="2SYwz835uoeRYahgLPHY" version="21.6.1" type="github">
  <diagram name="Page-1" id="Tx3xt78fc9ejixEqUQZj">
    <mxGraphModel dx="1301" dy="683" grid="1" gridSize="10" guides="1" tooltips="1" connect="1" arrows="1" fold="1" page="1" pageScale="1" pageWidth="850" pageHeight="1100" math="0" shadow="0">
      <root>
        <mxCell id="0" />
        <mxCell id="1" parent="0" />
        <mxCell id="TL5kzFwNnHaBVjq65xND-1" value="" style="rounded=0;whiteSpace=wrap;html=1;fillColor=#dae8fc;strokeColor=#6c8ebf;" vertex="1" parent="1">
          <mxGeometry x="260" y="250" width="540" height="370" as="geometry" />
        </mxCell>
        <mxCell id="TL5kzFwNnHaBVjq65xND-2" value="&lt;font face=&quot;Verdana&quot;&gt;&lt;span style=&quot;font-size: 18px;&quot;&gt;&lt;b&gt;MACHINE&lt;/b&gt;&lt;/span&gt;&lt;/font&gt;" style="text;html=1;strokeColor=none;fillColor=none;align=center;verticalAlign=middle;whiteSpace=wrap;rounded=0;" vertex="1" parent="1">
          <mxGeometry x="680" y="250" width="130" height="30" as="geometry" />
        </mxCell>
        <mxCell id="TL5kzFwNnHaBVjq65xND-3" value="&lt;b&gt;FE container&lt;/b&gt;" style="rounded=0;whiteSpace=wrap;html=1;fillColor=#fff2cc;strokeColor=#d6b656;" vertex="1" parent="1">
          <mxGeometry x="330" y="405" width="120" height="60" as="geometry" />
        </mxCell>
        <mxCell id="TL5kzFwNnHaBVjq65xND-4" value="&lt;b&gt;BE container&lt;/b&gt;" style="rounded=0;whiteSpace=wrap;html=1;fillColor=#fff2cc;strokeColor=#d6b656;" vertex="1" parent="1">
          <mxGeometry x="480" y="405" width="120" height="60" as="geometry" />
        </mxCell>
        <mxCell id="TL5kzFwNnHaBVjq65xND-5" value="&lt;b&gt;DB container&lt;/b&gt;" style="rounded=0;whiteSpace=wrap;html=1;fillColor=#fff2cc;strokeColor=#d6b656;" vertex="1" parent="1">
          <mxGeometry x="630" y="405" width="120" height="60" as="geometry" />
        </mxCell>
        <mxCell id="TL5kzFwNnHaBVjq65xND-7" value="CPU, MEMORY" style="rounded=0;whiteSpace=wrap;html=1;dashed=1;fillColor=#ffe6cc;strokeColor=#d79b00;" vertex="1" parent="1">
          <mxGeometry x="510" y="260" width="60" height="40" as="geometry" />
        </mxCell>
        <mxCell id="TL5kzFwNnHaBVjq65xND-10" value="" style="image;html=1;image=img/lib/clip_art/computers/Monitor_128x128.png" vertex="1" parent="1">
          <mxGeometry x="40" y="395" width="80" height="80" as="geometry" />
        </mxCell>
        <mxCell id="TL5kzFwNnHaBVjq65xND-11" value="" style="endArrow=classic;html=1;rounded=0;exitX=1;exitY=0.5;exitDx=0;exitDy=0;entryX=0;entryY=0.5;entryDx=0;entryDy=0;" edge="1" parent="1" source="TL5kzFwNnHaBVjq65xND-10" target="TL5kzFwNnHaBVjq65xND-3">
          <mxGeometry width="50" height="50" relative="1" as="geometry">
            <mxPoint x="400" y="520" as="sourcePoint" />
            <mxPoint x="450" y="470" as="targetPoint" />
          </mxGeometry>
        </mxCell>
        <mxCell id="TL5kzFwNnHaBVjq65xND-15" value="" style="endArrow=classic;html=1;rounded=0;exitX=0.5;exitY=0;exitDx=0;exitDy=0;entryX=0.5;entryY=1;entryDx=0;entryDy=0;dashed=1;" edge="1" parent="1" source="TL5kzFwNnHaBVjq65xND-3" target="TL5kzFwNnHaBVjq65xND-7">
          <mxGeometry width="50" height="50" relative="1" as="geometry">
            <mxPoint x="400" y="520" as="sourcePoint" />
            <mxPoint x="450" y="470" as="targetPoint" />
          </mxGeometry>
        </mxCell>
        <mxCell id="TL5kzFwNnHaBVjq65xND-16" value="" style="endArrow=classic;html=1;rounded=0;entryX=0.5;entryY=1;entryDx=0;entryDy=0;exitX=0.5;exitY=0;exitDx=0;exitDy=0;dashed=1;" edge="1" parent="1" source="TL5kzFwNnHaBVjq65xND-4" target="TL5kzFwNnHaBVjq65xND-7">
          <mxGeometry width="50" height="50" relative="1" as="geometry">
            <mxPoint x="400" y="520" as="sourcePoint" />
            <mxPoint x="450" y="470" as="targetPoint" />
          </mxGeometry>
        </mxCell>
        <mxCell id="TL5kzFwNnHaBVjq65xND-17" value="" style="endArrow=classic;html=1;rounded=0;entryX=0.5;entryY=1;entryDx=0;entryDy=0;exitX=0.5;exitY=0;exitDx=0;exitDy=0;dashed=1;" edge="1" parent="1" source="TL5kzFwNnHaBVjq65xND-5" target="TL5kzFwNnHaBVjq65xND-7">
          <mxGeometry width="50" height="50" relative="1" as="geometry">
            <mxPoint x="400" y="520" as="sourcePoint" />
            <mxPoint x="450" y="470" as="targetPoint" />
          </mxGeometry>
        </mxCell>
        <mxCell id="TL5kzFwNnHaBVjq65xND-18" value="&lt;b&gt;CLIENT&lt;/b&gt;" style="text;html=1;align=center;verticalAlign=middle;resizable=0;points=[];autosize=1;strokeColor=none;fillColor=none;" vertex="1" parent="1">
          <mxGeometry x="50" y="490" width="70" height="30" as="geometry" />
        </mxCell>
      </root>
    </mxGraphModel>
  </diagram>
</mxfile>
